<?xml version="1.0" encoding="utf-8"?>
<!-- Generator: Adobe Illustrator 16.0.3, SVG Export Plug-In . SVG Version: 6.00 Build 0)  -->
<!DOCTYPE svg PUBLIC "-//W3C//DTD SVG 1.1//EN" "http://www.w3.org/Graphics/SVG/1.1/DTD/svg11.dtd">
<svg version="1.1" id="Layer_1" xmlns="http://www.w3.org/2000/svg" xmlns:xlink="http://www.w3.org/1999/xlink" x="0px" y="0px"
	 width="957.946px" height="166.865px" viewBox="0 0 957.946 166.865" enable-background="new 0 0 957.946 166.865"
	 xml:space="preserve">
<path fill="#0D599E" d="M77.21,40.552c-1.755,6.547-3.896,12.723-5.645,19.298c-5.638-3.503-16.175-5.716-24.177-3.71
	c-12.895,3.224-21.677,16.01-22.607,30.996c-0.882,14.147,4.047,25.38,16.955,26.505c9.299,0.83,15.917-2.07,22.214-4.284
	c-0.767,6.247-1.776,12.249-2.535,18.524c-12.63,6.333-33.124,4.943-43.661-0.975c-10.946-6.16-18.06-18.66-17.744-34.899
	c0.329-16.476,5.666-29.377,14.248-38.403c8.976-9.47,19.699-15.322,36.247-16.375C60.426,36.605,69.166,38.332,77.21,40.552z"/>
<path fill="#0D599E" d="M738.029,39.184c0.086,1.032-0.717,1.941-1.175,2.729c-17.021,29.012-34.471,59.271-51.863,88.103
	c-8.567,0-17.149,0-25.731,0c-4.985-30.215-10.487-60.975-15.2-90.832c8.009,0,15.988,0,23.969,0
	c3.052,22.221,6.175,44.399,9.169,66.67c3.582-5.193,6.16-11.046,9.169-16.576c8.983-16.555,18.052-33.453,27.092-50.094
	C721.638,39.184,729.833,39.184,738.029,39.184z"/>
<path fill="#0D599E" d="M627.883,0c7.737,0,15.474,0,23.195,0c-1.446,7.715-3.237,15.079-4.871,22.622c-7.865,0-15.716,0-23.582,0
	C624.489,15.208,625.649,7.049,627.883,0z"/>
<path fill="#0D599E" d="M619.116,39.184c7.809,0,15.588,0,23.382,0c-6.477,30.301-12.823,60.731-19.485,90.832
	c-7.808,0-15.587,0-23.396,0C606.021,99.643,612.353,69.206,619.116,39.184z"/>
<path fill="#0D599E" d="M592.984,38.99c6.633,0.458,14.098,0.058,21.061,0.193c-1.146,5.846-2.436,11.591-3.696,17.35
	c-6.963,0-13.912,0-20.86,0c-2.894,10.53-5.501,24.506-8.181,36.648c-1.361,6.11-3.596,14.707,0.96,18.51
	c4.068,3.382,12.837,1.777,17.736,0c-1.418,6.047-2.75,12.192-4.097,18.324c-3.812,0.53-6.619,1.691-10.33,1.963
	c-20.674,1.49-30.846-8.84-29.413-27.493c1.261-16.647,6.963-32.923,9.341-47.751c-5.071-0.466-10.974-0.072-16.375-0.201
	c2.406,12.6-1.175,25.566-3.496,37.228c-2.421,12.021-4.886,23.977-6.633,36.254c-6.648,0-13.253,0-19.886,0
	c0.659-4.713,1.719-9.068,2.335-13.825c-1.117,0.487-1.762,1.634-2.536,2.521c-6.533,7.564-14.886,14.298-30.201,13.267
	c-13.854-0.932-23.753-9.398-24.771-23.202c-2.378-32.708,32.536-35.531,63.94-34.893c1.376-5.179,1.018-11.461-1.562-14.427
	c-9.098-10.523-36.189-2.958-45.416,1.949c0.516-6.053,2.156-12.665,3.123-18.904c20.903-8.009,58.195-9.47,64.715,12.665
	c1.304-5.187,2.32-10.688,3.495-15.982c5.674,0,11.318,0,16.963,0c1.562-6.053,2.895-12.335,4.098-18.718
	c8.481-2.629,16.82-5.394,25.158-8.181C597.239,21.018,594.674,30.086,592.984,38.99z M525.161,87.909
	c-3.868-0.093-7.307,0.058-10.545,0.2c-13.095,0.602-29.033,3.439-28.252,17.559c0.344,6.023,6.16,8.904,11.519,9.146
	C515.762,115.632,521.879,102.186,525.161,87.909z"/>
<path fill="#0D599E" d="M481.098,37.815c-1.439,7.916-3.252,15.459-4.871,23.203c-3.402-0.953-6.641-1.655-10.902-1.361
	c-14.836,0.981-22.085,13.682-25.358,27.092c-3.511,14.441-5.874,30.101-9.148,43.267c-7.808,0-15.602,0-23.396,0
	c5.896-30.487,12.723-60.029,18.331-90.832c7.457,0,14.936,0,22.414,0c-0.952,5.738-2.048,11.326-3.115,16.956
	c0.823-0.444,1.411-1.92,2.135-3.116C453.068,43.424,464.58,34.169,481.098,37.815z"/>
<path fill="#0D599E" d="M409.17,51.075c6.211,9.513,6.482,26.741,3.123,40.738c-21.312,0-42.629,0-63.926,0
	c-0.259,5.522,0.952,10.286,2.908,13.646c8.316,14.17,36.913,9.57,49.907,2.924c-0.859,6.289-1.898,12.406-2.923,18.523
	c-12.521,4.127-27.644,6.764-41.906,3.897c-13.022-2.622-22.743-9.513-27.493-20.466c-7.249-16.791-1.268-37.701,6.634-49.714
	c8.303-12.636,21.419-22.622,39.563-23.582C390.982,36.189,403.189,41.906,409.17,51.075z M391.434,75.638
	c2.35-11.167-1.827-20.451-12.271-21.247c-16.763-1.296-23.94,10.172-27.687,21.247C364.792,75.638,378.125,75.638,391.434,75.638z"
	/>
<path fill="#0D599E" d="M290.079,37.042c29.362-1.719,40.523,23.904,33.718,53.21c-5.437,23.503-20.509,43.418-48.532,41.727
	c-11.641-0.717-18.768-6.433-22.02-16.189c-4.033,16.591-6.971,34.241-10.731,51.076c-7.858,0-15.724,0-23.574,0
	c4.412-21.291,8.847-42.379,13.245-63.547c4.405-21.197,8.982-42.372,12.657-64.135c7.479,0,14.957,0,22.437,0
	c-0.882,3.94-1.855,7.758-2.536,11.892C270.343,43.847,277.614,37.766,290.079,37.042z M283.058,112.094
	c11.605-4.894,18.116-21.455,17.938-37.63c-0.122-11.397-6.892-20.007-18.138-18.911c-3.109,0.301-6.153,1.333-8.381,2.736
	c-6.183,3.89-10.854,12.113-13.246,20.466c-3.366,11.712-2.851,26.935,5.065,32.558
	C270.379,114.213,278.445,114.027,283.058,112.094z"/>
<path fill="#F07422" d="M207.613,40.552c16.748,5.989,27.192,21.698,24.177,45.61c-2.514,19.979-14.255,34.326-29.635,41.519
	c-7.472,3.511-18.188,6.132-30.201,4.871c-8.732-0.917-16.476-4.184-22.034-9.169c-0.502-0.43-2.143-2.078-2.143-2.135
	c-0.014-0.502,2.321-2.508,3.116-3.31c4.886-4.985,8.432-10.688,11.497-17.356c1.483,9.684,9.95,14.721,19.886,13.846
	c7.658-0.673,12.815-5.215,16.369-9.749c6.497-8.245,12.872-27.521,6.246-40.352c-1.39-2.672-4.319-5.723-7.601-7.013
	c-3.08-1.204-8.037-1.254-9.362-1.175c-14.606,0.988-22.837,14.313-25.538,28.073c-0.602,3.066-0.4,6.232-0.959,9.75
	c-0.946,5.931-3.783,10.336-6.827,14.613c-5.609,7.872-13.553,14.863-23.589,19.305c-9.334,4.127-23.009,6.705-36.448,3.311
	c-10.945-2.766-19.52-9.441-23.982-18.904c-4.549-9.686-5.709-24.485-2.142-36.455C71.959,64.063,78.8,55.387,85.398,49.9
	c7.572-6.282,17.88-11.369,31.383-12.085c17.415-0.924,28.962,4.964,36.648,14.234C164.267,41.24,187.054,33.188,207.613,40.552z
	 M135.492,88.884c2.006-8.152,2.5-18.539-1.554-25.337c-3.195-5.365-9.542-7.951-17.157-7.206
	c-8.316,0.809-14.104,5.437-17.93,10.724c-5.838,8.066-12.199,29.09-4.09,40.739c4.434,6.354,15.952,8.531,24.162,4.678
	C127.412,108.482,132.97,99.242,135.492,88.884z"/>
<polygon fill-rule="evenodd" clip-rule="evenodd" fill="#0D599E" points="808.602,106.169 832.929,106.169 828.202,129.787 
	803.903,129.787 "/>
<path fill="#0D599E" d="M916.512,40.466c-1.791,6.547-3.911,12.723-5.659,19.298c-5.631-3.503-16.161-5.716-24.184-3.704
	c-12.88,3.231-21.677,16.003-22.594,30.996c-0.888,14.148,4.04,25.373,16.949,26.512c9.298,0.816,15.917-2.07,22.221-4.291
	c-0.773,6.254-1.776,12.242-2.536,18.518c-12.622,6.333-33.109,4.957-43.668-0.975c-10.945-6.146-18.066-18.66-17.723-34.893
	c0.315-16.476,5.646-29.384,14.213-38.403c8.997-9.463,19.728-15.323,36.261-16.375C899.721,36.526,908.46,38.245,916.512,40.466z"
	/>
<polygon fill-rule="evenodd" clip-rule="evenodd" fill="#0D599E" points="906.512,130.174 930.008,130.174 957.946,0.129 
	934.721,0.129 "/>
<path fill="#0D599E" d="M804.505,64.915c0,5.538-1.146,11.375-2.149,16.963c-2.88,15.716-6.763,32.364-9.169,48.138h-19.686
	c0.573-4.813,1.591-9.197,2.35-13.825c-2.063,1.404-3.381,3.554-5.101,5.243c-5.114,5.129-11.575,9.93-21.433,10.545
	c-18.481,1.146-31.146-8.052-31.175-25.745c-0.058-30.624,32.723-32.687,63.926-32.35c1.948-6.11,0.674-12.98-2.923-15.795
	c-10.372-8.102-34.757-1.49-44.04,3.124c0.831-6.433,2.292-12.271,3.108-18.711c14.656-5.595,40.273-8.496,54.399-0.201
	C799.992,46.641,804.476,54.836,804.505,64.915z M779.534,87.909c-13.797,0.093-27.752-0.093-34.887,7.221
	c-2.436,2.493-4.354,6.677-3.896,11.104c0.588,5.666,6.505,8.409,11.69,8.581C770.178,115.417,776.109,102.1,779.534,87.909z"/>
</svg>
