<?xml version="1.0" encoding="utf-8"?>
<!-- Generator: Adobe Illustrator 16.0.3, SVG Export Plug-In . SVG Version: 6.00 Build 0)  -->
<!DOCTYPE svg PUBLIC "-//W3C//DTD SVG 1.1//EN" "http://www.w3.org/Graphics/SVG/1.1/DTD/svg11.dtd">
<svg version="1.1" id="Capa_1" xmlns="http://www.w3.org/2000/svg" xmlns:xlink="http://www.w3.org/1999/xlink" x="0px" y="0px"
	 width="95.325px" height="89.628px" viewBox="0 0 95.325 89.628" enable-background="new 0 0 95.325 89.628" xml:space="preserve">
<path fill-rule="evenodd" clip-rule="evenodd" fill="#CB6133" d="M7.912,89.628C5.334,87.04,2.655,84.351,0,81.685
	c7.984-7.986,16.01-16.016,24.125-24.133c-2.752-2.689-5.388-5.268-8.253-8.065c2.485-1.958,4.7-3.913,7.117-5.569
	c6.521-4.466,13.793-6.928,21.653-7.69c0.332-0.032,0.734-0.126,0.957-0.343c2.523-2.472,5.022-4.971,7.459-7.599
	c-16.467-1.1-30.684,3.989-42.571,15.396c-2.672-2.697-5.352-5.405-8.169-8.251c2.12-1.795,4.268-3.775,6.576-5.546
	c8.628-6.622,18.36-10.755,29.071-12.524c8.21-1.355,16.414-1.14,24.562,0.612c0.633,0.137,1.01,0.009,1.445-0.427
	c5.544-5.567,11.106-11.117,16.654-16.685C80.873,0.612,81.019,0.265,81.187,0c2.905,2.893,5.592,5.571,8.197,8.165
	C62.255,35.292,35.104,62.44,7.912,89.628z"/>
<path fill-rule="evenodd" clip-rule="evenodd" fill="#CB6133" d="M48.757,82.479c-3.775-4.002-7.551-8.007-11.376-12.061
	c0.193-0.213,0.368-0.435,0.566-0.631c4.239-4.247,8.489-8.483,12.718-12.741c0.442-0.448,0.859-0.678,1.521-0.587
	c5.714,0.787,10.593,3.23,14.677,7.222C60.816,69.961,54.816,76.191,48.757,82.479z"/>
<path fill-rule="evenodd" clip-rule="evenodd" fill="#CB6133" d="M81.404,49.508c-2.699,2.697-5.376,5.375-8.117,8.116
	c-4.065-4.016-8.878-6.894-14.39-8.6c-0.087-0.122-0.173-0.244-0.263-0.366c0.318-0.172,0.697-0.28,0.945-0.524
	c2.514-2.483,5.009-4.988,7.505-7.488c0.32-0.322,0.563-0.614,1.138-0.343c4.824,2.264,9.177,5.202,12.974,8.949
	C81.282,49.341,81.355,49.446,81.404,49.508z"/>
<path fill-rule="evenodd" clip-rule="evenodd" fill="#CB6133" d="M95.325,35.643c-2.756,2.752-5.42,5.411-8.15,8.138
	c-3.93-3.905-8.382-7.167-13.267-9.714c2.815-2.817,5.586-5.586,8.42-8.423C87.01,28.4,91.399,31.698,95.325,35.643z"/>
</svg>
