<?xml version="1.0" encoding="utf-8"?>
<!-- Generator: Adobe Illustrator 16.0.3, SVG Export Plug-In . SVG Version: 6.00 Build 0)  -->
<!DOCTYPE svg PUBLIC "-//W3C//DTD SVG 1.1//EN" "http://www.w3.org/Graphics/SVG/1.1/DTD/svg11.dtd">
<svg version="1.1" id="Capa_1" xmlns="http://www.w3.org/2000/svg" xmlns:xlink="http://www.w3.org/1999/xlink" x="0px" y="0px"
	 width="12.834px" height="20px" viewBox="0 0 12.834 20" enable-background="new 0 0 12.834 20" xml:space="preserve">
<linearGradient id="SVGID_1_" gradientUnits="userSpaceOnUse" x1="2.1475" y1="3.166" x2="2.1475" y2="19.8866">
	<stop  offset="0" style="stop-color:#FFFFFF"/>
	<stop  offset="0.1334" style="stop-color:#F3F3F3"/>
	<stop  offset="0.3758" style="stop-color:#D2D2D2"/>
	<stop  offset="0.6974" style="stop-color:#9E9E9E"/>
	<stop  offset="0.9005" style="stop-color:#7A7A7A"/>
</linearGradient>
<path fill="url(#SVGID_1_)" d="M4.295,18.584C4.295,19.367,3.66,20,2.877,20h-1.46C0.635,20,0,19.367,0,18.584V1.417
	C0,0.635,0.635,0,1.417,0h1.46C3.66,0,4.295,0.635,4.295,1.417V18.584z"/>
<linearGradient id="SVGID_2_" gradientUnits="userSpaceOnUse" x1="10.6865" y1="3.166" x2="10.6865" y2="19.8866">
	<stop  offset="0" style="stop-color:#FFFFFF"/>
	<stop  offset="0.1334" style="stop-color:#F3F3F3"/>
	<stop  offset="0.3758" style="stop-color:#D2D2D2"/>
	<stop  offset="0.6974" style="stop-color:#9E9E9E"/>
	<stop  offset="0.9005" style="stop-color:#7A7A7A"/>
</linearGradient>
<path fill="url(#SVGID_2_)" d="M12.834,18.584c0,0.783-0.635,1.416-1.418,1.416h-1.46c-0.782,0-1.417-0.633-1.417-1.416V1.417
	C8.539,0.635,9.174,0,9.956,0h1.46c0.783,0,1.418,0.635,1.418,1.417V18.584z"/>
</svg>
