<?xml version="1.0" encoding="utf-8"?>
<!-- Generator: Adobe Illustrator 16.0.3, SVG Export Plug-In . SVG Version: 6.00 Build 0)  -->
<!DOCTYPE svg PUBLIC "-//W3C//DTD SVG 1.1//EN" "http://www.w3.org/Graphics/SVG/1.1/DTD/svg11.dtd">
<svg version="1.1" id="Capa_1" xmlns="http://www.w3.org/2000/svg" xmlns:xlink="http://www.w3.org/1999/xlink" x="0px" y="0px"
	 width="320px" height="35px" viewBox="0 0 320 35" enable-background="new 0 0 320 35" xml:space="preserve">
<linearGradient id="SVGID_1_" gradientUnits="userSpaceOnUse" x1="0" y1="17.5" x2="320" y2="17.5">
	<stop  offset="0" style="stop-color:#000035"/>
	<stop  offset="0.0898" style="stop-color:#001040"/>
	<stop  offset="0.3719" style="stop-color:#003F5E"/>
	<stop  offset="0.5131" style="stop-color:#00516A"/>
	<stop  offset="0.6076" style="stop-color:#004965"/>
	<stop  offset="0.7569" style="stop-color:#003256"/>
	<stop  offset="0.9412" style="stop-color:#000D3E"/>
	<stop  offset="1" style="stop-color:#000035"/>
</linearGradient>
<rect fill="url(#SVGID_1_)" width="320" height="35"/>
<g>
	<path fill="#667A96" d="M235.346,14.923c-0.465-0.304-1.018-0.456-1.658-0.456c-0.908,0.023-1.605,0.388-2.093,1.091
		c-0.498,0.681-0.747,1.472-0.747,2.369c0,0.28,0.033,0.556,0.099,0.824c0.057,0.285,0.153,0.547,0.292,0.78
		c0.143,0.219,0.34,0.394,0.589,0.524c0.249,0.154,0.566,0.232,0.954,0.232c0.604,0,1.221-0.155,1.853-0.464l-0.249,1.852
		c-0.703,0.295-1.436,0.436-2.199,0.425c-1.128-0.012-2.025-0.373-2.695-1.087c-0.668-0.701-1.009-1.637-1.021-2.807
		c0.012-1.614,0.481-2.939,1.411-3.979c0.917-1.026,2.17-1.552,3.757-1.574c0.879,0.011,1.637,0.127,2.271,0.349L235.346,14.923z"/>
	<path fill="#667A96" d="M253.011,14.033c0.095-0.419,0.158-0.812,0.19-1.174h2.156l-0.266,1.198h0.035
		c0.639-0.936,1.521-1.403,2.642-1.403c1.083,0.012,1.893,0.351,2.429,1.019c0.519,0.661,0.778,1.543,0.778,2.644
		c0,1.46-0.372,2.771-1.117,3.928c-0.761,1.198-1.904,1.817-3.428,1.856c-0.507,0-0.982-0.11-1.424-0.332
		c-0.453-0.232-0.781-0.657-0.986-1.277l-0.031-0.009l-1.003,5.084h-2.344L253.011,14.033z M258.6,16.398
		c0-0.572-0.131-1.041-0.391-1.407c-0.271-0.337-0.674-0.512-1.205-0.524c-0.377,0-0.713,0.113-1.006,0.336
		c-0.312,0.234-0.566,0.538-0.766,0.91c-0.433,0.772-0.648,1.588-0.648,2.446c0,0.595,0.114,1.093,0.342,1.494
		c0.237,0.411,0.623,0.622,1.156,0.635c0.475,0,0.877-0.143,1.204-0.43c0.332-0.257,0.591-0.59,0.772-0.996
		c0.2-0.412,0.342-0.842,0.424-1.288C258.56,17.14,258.6,16.748,258.6,16.398z"/>
	<path fill="#667A96" d="M263.213,18.104c0.012,1.558,0.818,2.32,2.421,2.285c0.939,0,1.836-0.217,2.686-0.653l-0.29,1.854
		c-0.906,0.312-1.834,0.481-2.785,0.51c-1.276,0-2.288-0.327-3.033-0.983c-0.769-0.646-1.159-1.631-1.17-2.961
		c0.011-1.46,0.486-2.735,1.426-3.826c0.913-1.095,2.095-1.653,3.549-1.676c1.094,0,1.964,0.279,2.61,0.838
		c0.637,0.571,0.96,1.436,0.971,2.593c0,0.679-0.074,1.351-0.224,2.02H263.213z M267.367,16.497c0.038-0.212,0.058-0.416,0.058-0.61
		c0-0.997-0.484-1.505-1.451-1.522c-0.706,0.018-1.248,0.212-1.625,0.584c-0.389,0.391-0.69,0.907-0.908,1.549H267.367z"/>
	<path fill="#667A96" d="M270.902,14.074c0.075-0.388,0.146-0.793,0.215-1.215h2.241l-0.317,1.713h0.035
		c0.233-0.514,0.597-0.958,1.087-1.335c0.49-0.371,1.018-0.562,1.582-0.574c0.303,0,0.601,0.029,0.89,0.085l-0.487,2.284
		c-0.279-0.091-0.578-0.137-0.898-0.137c-0.815,0.022-1.439,0.325-1.874,0.906c-0.445,0.588-0.741,1.267-0.89,2.037l-0.848,4.048
		h-2.345L270.902,14.074z"/>
	<path fill="#667A96" d="M280.35,20.5h-0.033c-0.386,0.502-0.796,0.888-1.228,1.154c-0.441,0.286-0.972,0.435-1.591,0.445
		c-0.795,0-1.441-0.222-1.938-0.665c-0.497-0.445-0.751-1.08-0.762-1.906c0-0.751,0.183-1.341,0.547-1.768
		c0.166-0.233,0.368-0.427,0.604-0.581c0.227-0.147,0.47-0.275,0.729-0.385c0.559-0.209,1.146-0.345,1.764-0.4
		c0.614-0.046,1.185-0.068,1.715-0.068h0.796c0.05-0.248,0.074-0.504,0.074-0.774c-0.011-0.446-0.199-0.766-0.563-0.955
		c-0.364-0.155-0.759-0.232-1.185-0.232c-1.01,0.018-1.965,0.253-2.865,0.706l0.315-1.868c0.968-0.366,1.959-0.548,2.977-0.548
		c0.918-0.011,1.702,0.179,2.354,0.574c0.669,0.422,1.014,1.156,1.037,2.206c-0.013,0.69-0.158,1.704-0.44,3.039
		c-0.283,1.328-0.492,2.466-0.631,3.413h-1.918L280.35,20.5z M276.971,19.44c0,0.319,0.125,0.553,0.374,0.701
		c0.214,0.166,0.474,0.248,0.777,0.248c0.829-0.011,1.428-0.279,1.798-0.804c0.203-0.246,0.37-0.528,0.496-0.847
		c0.067-0.16,0.122-0.328,0.166-0.506c0.05-0.164,0.091-0.333,0.125-0.504h-0.804c-0.271,0-0.569,0.012-0.895,0.034
		c-0.331,0.034-0.654,0.108-0.969,0.222c-0.304,0.12-0.553,0.292-0.746,0.514C277.079,18.745,276.971,19.058,276.971,19.44z"/>
	<path fill="#667A96" d="M284.133,12.859h1.641l0.39-1.857l2.446-0.821l-0.556,2.679h2.03l-0.357,1.711h-2.033l-0.838,3.958
		c-0.067,0.223-0.101,0.515-0.101,0.876c0,0.257,0.087,0.469,0.258,0.635c0.155,0.165,0.357,0.249,0.606,0.249
		c0.431,0,0.803-0.071,1.113-0.216l-0.398,1.816c-0.188,0.033-0.386,0.072-0.591,0.118c-0.215,0.063-0.425,0.094-0.63,0.094
		c-0.78,0-1.409-0.182-1.886-0.548c-0.498-0.359-0.747-0.969-0.747-1.825c0.011-0.691,0.104-1.395,0.282-2.107l0.646-3.05h-1.634
		L284.133,12.859z"/>
	<path fill="#667A96" d="M290.597,12.859h2.275l-1.87,9.027h-2.266L290.597,12.859z M291.439,8.975h2.258l-0.469,2.241h-2.268
		L291.439,8.975z"/>
	<path fill="#667A96" d="M292.917,12.859h2.404l0.908,6.633h0.033l3.468-6.633h2.407l-5.105,9.027h-2.592L292.917,12.859z"/>
	<path fill="#667A96" d="M306.274,20.5h-0.033c-0.388,0.502-0.796,0.888-1.228,1.154c-0.441,0.286-0.973,0.435-1.593,0.445
		c-0.794,0-1.439-0.222-1.936-0.665c-0.497-0.445-0.751-1.08-0.763-1.906c0-0.751,0.183-1.341,0.547-1.768
		c0.165-0.233,0.367-0.427,0.605-0.581c0.227-0.147,0.47-0.275,0.729-0.385c0.557-0.209,1.145-0.345,1.765-0.4
		c0.611-0.046,1.184-0.068,1.714-0.068h0.794c0.051-0.248,0.076-0.504,0.076-0.774c-0.012-0.446-0.199-0.766-0.563-0.955
		c-0.364-0.155-0.759-0.232-1.185-0.232c-1.011,0.018-1.966,0.253-2.865,0.706l0.314-1.868c0.967-0.366,1.96-0.548,2.977-0.548
		c0.917-0.011,1.702,0.179,2.355,0.574c0.668,0.422,1.014,1.156,1.035,2.206c-0.011,0.69-0.158,1.704-0.44,3.039
		c-0.282,1.328-0.492,2.466-0.63,3.413h-1.918L306.274,20.5z M302.896,19.44c0,0.319,0.123,0.553,0.372,0.701
		c0.216,0.166,0.476,0.248,0.779,0.248c0.827-0.011,1.428-0.279,1.796-0.804c0.205-0.246,0.371-0.528,0.498-0.847
		c0.065-0.16,0.122-0.328,0.166-0.506c0.049-0.164,0.091-0.333,0.124-0.504h-0.805c-0.27,0-0.567,0.012-0.895,0.034
		c-0.331,0.034-0.654,0.108-0.969,0.222c-0.304,0.12-0.553,0.292-0.745,0.514C303.002,18.745,302.896,19.058,302.896,19.44z"/>
	<path fill="#667A96" d="M249.344,12.925c1.677,0.6,2.722,2.173,2.421,4.567c-0.252,2.001-1.428,3.437-2.968,4.158
		c-0.748,0.352-1.822,0.614-3.026,0.488c-0.873-0.093-1.649-0.42-2.205-0.918c-0.05-0.045-0.216-0.209-0.216-0.215
		c-0.001-0.052,0.234-0.25,0.313-0.332c0.489-0.5,0.844-1.069,1.152-1.737c0.147,0.969,0.995,1.475,1.991,1.387
		c0.767-0.067,1.281-0.522,1.639-0.977c0.649-0.825,1.289-2.757,0.625-4.041c-0.14-0.268-0.432-0.572-0.761-0.702
		c-0.31-0.121-0.805-0.127-0.937-0.118c-1.464,0.099-2.289,1.434-2.558,2.813c-0.061,0.307-0.042,0.623-0.099,0.975
		c-0.094,0.596-0.377,1.036-0.684,1.464c-0.562,0.788-1.355,1.488-2.361,1.934c-0.934,0.413-2.304,0.673-3.65,0.332
		c-1.095-0.277-1.954-0.945-2.4-1.894c-0.456-0.97-0.573-2.452-0.215-3.65c0.353-1.179,1.037-2.047,1.698-2.597
		c0.758-0.629,1.79-1.139,3.144-1.21c1.743-0.093,2.9,0.496,3.668,1.426C245.002,12.994,247.283,12.187,249.344,12.925z
		 M242.121,17.766c0.199-0.817,0.25-1.857-0.156-2.537c-0.32-0.538-0.955-0.798-1.717-0.724c-0.834,0.082-1.414,0.546-1.797,1.074
		c-0.585,0.81-1.221,2.914-0.41,4.08c0.443,0.638,1.598,0.856,2.421,0.468C241.313,19.728,241.868,18.801,242.121,17.766z"/>
</g>
<linearGradient id="SVGID_2_" gradientUnits="userSpaceOnUse" x1="158.9995" y1="24.25" x2="158.9995" y2="35.25">
	<stop  offset="0" style="stop-color:#FFFFFF"/>
	<stop  offset="0.2119" style="stop-color:#FCFCFC"/>
	<stop  offset="0.3844" style="stop-color:#F2F2F2"/>
	<stop  offset="0.5432" style="stop-color:#E1E1E1"/>
	<stop  offset="0.6937" style="stop-color:#C9C9C9"/>
	<stop  offset="0.8383" style="stop-color:#AAAAAA"/>
	<stop  offset="0.9767" style="stop-color:#848484"/>
	<stop  offset="1" style="stop-color:#7D7D7D"/>
</linearGradient>
<rect x="158" y="25" fill="url(#SVGID_2_)" width="2" height="10"/>
<linearGradient id="SVGID_3_" gradientUnits="userSpaceOnUse" x1="197.75" y1="26.4004" x2="197.75" y2="35.2004">
	<stop  offset="0" style="stop-color:#B3C7D9"/>
	<stop  offset="0.2485" style="stop-color:#B0C4D6"/>
	<stop  offset="0.4508" style="stop-color:#A7BACD"/>
	<stop  offset="0.6369" style="stop-color:#98A9BD"/>
	<stop  offset="0.8133" style="stop-color:#8391A7"/>
	<stop  offset="0.9814" style="stop-color:#67728B"/>
	<stop  offset="1" style="stop-color:#646E87"/>
</linearGradient>
<rect x="196.75" y="27" fill="url(#SVGID_3_)" width="2" height="8"/>
<linearGradient id="SVGID_4_" gradientUnits="userSpaceOnUse" x1="119.75" y1="26.4004" x2="119.75" y2="35.2004">
	<stop  offset="0" style="stop-color:#B3C7D9"/>
	<stop  offset="0.2485" style="stop-color:#B0C4D6"/>
	<stop  offset="0.4508" style="stop-color:#A7BACD"/>
	<stop  offset="0.6369" style="stop-color:#98A9BD"/>
	<stop  offset="0.8133" style="stop-color:#8391A7"/>
	<stop  offset="0.9814" style="stop-color:#67728B"/>
	<stop  offset="1" style="stop-color:#646E87"/>
</linearGradient>
<rect x="118.75" y="27" fill="url(#SVGID_4_)" width="2" height="8"/>
<linearGradient id="SVGID_5_" gradientUnits="userSpaceOnUse" x1="233.1895" y1="28.0127" x2="233.1895" y2="35.1627">
	<stop  offset="0" style="stop-color:#5F78A3"/>
	<stop  offset="0.2201" style="stop-color:#5A6E97"/>
	<stop  offset="0.6183" style="stop-color:#4C5577"/>
	<stop  offset="0.9005" style="stop-color:#40405C"/>
</linearGradient>
<rect x="232.189" y="28.5" fill="url(#SVGID_5_)" width="2" height="6.5"/>
<g opacity="0.2">
	<path d="M144.918,16.987c-0.492,0-0.983-0.088-1.475-0.265s-0.937-0.445-1.334-0.805c-0.398-0.36-0.722-0.813-0.971-1.361
		c-0.249-0.547-0.374-1.194-0.374-1.941c0-0.686,0.126-1.333,0.379-1.942c0.252-0.609,0.613-1.143,1.08-1.6s1.026-0.818,1.677-1.085
		s1.378-0.4,2.181-0.4c0.817,0,1.547,0.125,2.191,0.374s1.189,0.599,1.636,1.049c0.447,0.45,0.79,0.985,1.028,1.604
		c0.239,0.62,0.358,1.304,0.358,2.052c0,0.498-0.04,0.966-0.12,1.402c-0.08,0.436-0.19,0.854-0.332,1.251
		c-0.142,0.398-0.313,0.779-0.514,1.143c-0.201,0.363-0.426,0.722-0.675,1.075l-3.261,4.632c-0.139,0.201-0.356,0.371-0.654,0.509
		c-0.298,0.139-0.634,0.208-1.007,0.208h-2.971l4.798-5.733c0.097-0.117,0.189-0.229,0.275-0.337s0.171-0.217,0.254-0.327
		c-0.312,0.166-0.651,0.29-1.018,0.374C145.704,16.946,145.319,16.987,144.918,16.987z M148.221,12.376
		c0-0.367-0.054-0.69-0.161-0.971c-0.107-0.281-0.256-0.515-0.447-0.701c-0.19-0.188-0.42-0.329-0.69-0.426
		c-0.27-0.098-0.564-0.146-0.883-0.146c-0.326,0-0.615,0.057-0.867,0.171c-0.253,0.114-0.467,0.272-0.644,0.473
		c-0.177,0.201-0.312,0.438-0.405,0.712c-0.093,0.273-0.14,0.569-0.14,0.888c0,1.51,0.699,2.265,2.098,2.265
		c0.686,0,1.213-0.206,1.584-0.618C148.035,13.61,148.221,13.062,148.221,12.376z"/>
	<path d="M158.191,7.588c0.748,0,1.412,0.105,1.995,0.317c0.581,0.211,1.071,0.496,1.474,0.856s0.707,0.777,0.914,1.251
		c0.207,0.475,0.311,0.976,0.311,1.501c0,0.479-0.047,0.898-0.145,1.262c-0.098,0.364-0.24,0.679-0.432,0.945
		c-0.189,0.267-0.426,0.493-0.705,0.681c-0.281,0.187-0.602,0.343-0.961,0.468c1.676,0.581,2.514,1.72,2.514,3.417
		c0,0.803-0.146,1.502-0.438,2.098s-0.68,1.091-1.168,1.485s-1.054,0.69-1.697,0.888c-0.644,0.197-1.316,0.296-2.015,0.296
		c-0.72,0-1.36-0.078-1.921-0.233c-0.561-0.156-1.059-0.398-1.496-0.728c-0.436-0.328-0.819-0.749-1.147-1.262
		c-0.329-0.512-0.615-1.121-0.857-1.828l1.433-0.581c0.125-0.056,0.248-0.094,0.369-0.114s0.241-0.031,0.358-0.031
		c0.222,0,0.421,0.043,0.597,0.13c0.177,0.087,0.31,0.213,0.4,0.379c0.312,0.575,0.642,0.992,0.992,1.252
		c0.35,0.259,0.76,0.389,1.23,0.389c0.36,0,0.673-0.061,0.94-0.182s0.488-0.276,0.665-0.467c0.176-0.19,0.31-0.407,0.399-0.649
		c0.09-0.242,0.135-0.488,0.135-0.737c0-0.325-0.022-0.618-0.067-0.878c-0.045-0.26-0.171-0.482-0.379-0.67
		c-0.208-0.187-0.521-0.33-0.94-0.431s-1.002-0.15-1.75-0.15v-2.223c0.63,0,1.139-0.049,1.527-0.146s0.687-0.23,0.898-0.4
		c0.211-0.169,0.352-0.375,0.42-0.617c0.069-0.243,0.104-0.51,0.104-0.8c0-0.596-0.144-1.055-0.431-1.377
		c-0.287-0.321-0.725-0.482-1.313-0.482c-0.243,0-0.464,0.034-0.665,0.104s-0.381,0.163-0.54,0.28
		c-0.159,0.118-0.296,0.257-0.41,0.416s-0.206,0.332-0.275,0.52c-0.111,0.312-0.251,0.536-0.42,0.675
		c-0.17,0.139-0.4,0.208-0.691,0.208c-0.069,0-0.144-0.004-0.223-0.011s-0.161-0.018-0.244-0.031l-1.703-0.301
		c0.111-0.755,0.324-1.413,0.639-1.974s0.706-1.028,1.174-1.402c0.467-0.374,1.002-0.652,1.604-0.836S157.498,7.588,158.191,7.588z"
		/>
	<path d="M164.317,21.256c0-0.249,0.047-0.48,0.141-0.695s0.223-0.401,0.385-0.562c0.162-0.159,0.354-0.285,0.576-0.379
		c0.221-0.094,0.463-0.14,0.727-0.14c0.256,0,0.496,0.046,0.717,0.14c0.223,0.094,0.416,0.22,0.582,0.379
		c0.166,0.16,0.295,0.347,0.389,0.562s0.141,0.446,0.141,0.695s-0.047,0.483-0.141,0.701s-0.223,0.407-0.389,0.566
		s-0.359,0.284-0.582,0.374c-0.221,0.09-0.461,0.135-0.717,0.135c-0.264,0-0.506-0.045-0.727-0.135
		c-0.223-0.09-0.414-0.215-0.576-0.374s-0.291-0.349-0.385-0.566S164.317,21.505,164.317,21.256z"/>
	<path d="M175.14,7.588c0.748,0,1.414,0.105,1.994,0.317c0.582,0.211,1.074,0.496,1.475,0.856c0.402,0.36,0.707,0.777,0.914,1.251
		c0.209,0.475,0.313,0.976,0.313,1.501c0,0.479-0.049,0.898-0.145,1.262c-0.098,0.364-0.242,0.679-0.432,0.945
		c-0.191,0.267-0.426,0.493-0.707,0.681c-0.279,0.187-0.6,0.343-0.961,0.468c1.676,0.581,2.514,1.72,2.514,3.417
		c0,0.803-0.145,1.502-0.436,2.098s-0.68,1.091-1.168,1.485s-1.055,0.69-1.699,0.888c-0.643,0.197-1.314,0.296-2.014,0.296
		c-0.721,0-1.361-0.078-1.922-0.233c-0.561-0.156-1.061-0.398-1.496-0.728c-0.436-0.328-0.818-0.749-1.148-1.262
		c-0.328-0.512-0.613-1.121-0.855-1.828l1.434-0.581c0.123-0.056,0.246-0.094,0.367-0.114s0.242-0.031,0.359-0.031
		c0.221,0,0.42,0.043,0.598,0.13c0.176,0.087,0.309,0.213,0.398,0.379c0.313,0.575,0.643,0.992,0.992,1.252
		c0.35,0.259,0.76,0.389,1.23,0.389c0.361,0,0.674-0.061,0.941-0.182c0.266-0.121,0.486-0.276,0.664-0.467
		c0.176-0.19,0.311-0.407,0.4-0.649s0.135-0.488,0.135-0.737c0-0.325-0.023-0.618-0.068-0.878s-0.172-0.482-0.379-0.67
		c-0.207-0.187-0.521-0.33-0.939-0.431c-0.42-0.101-1.002-0.15-1.75-0.15v-2.223c0.629,0,1.139-0.049,1.527-0.146
		c0.387-0.097,0.686-0.23,0.896-0.4c0.213-0.169,0.352-0.375,0.422-0.617c0.068-0.243,0.104-0.51,0.104-0.8
		c0-0.596-0.145-1.055-0.432-1.377c-0.287-0.321-0.725-0.482-1.313-0.482c-0.242,0-0.465,0.034-0.666,0.104s-0.381,0.163-0.539,0.28
		c-0.16,0.118-0.297,0.257-0.41,0.416c-0.115,0.159-0.207,0.332-0.275,0.52c-0.111,0.312-0.252,0.536-0.422,0.675
		c-0.168,0.139-0.398,0.208-0.689,0.208c-0.07,0-0.145-0.004-0.223-0.011c-0.08-0.007-0.162-0.018-0.244-0.031l-1.705-0.301
		c0.111-0.755,0.324-1.413,0.641-1.974c0.314-0.561,0.705-1.028,1.172-1.402c0.469-0.374,1.004-0.652,1.605-0.836
		S174.448,7.588,175.14,7.588z"/>
</g>
<linearGradient id="SVGID_6_" gradientUnits="userSpaceOnUse" x1="84.5" y1="28.0127" x2="84.5" y2="35.1627">
	<stop  offset="0" style="stop-color:#5F78A3"/>
	<stop  offset="0.2201" style="stop-color:#5A6E97"/>
	<stop  offset="0.6183" style="stop-color:#4C5577"/>
	<stop  offset="0.9005" style="stop-color:#40405C"/>
</linearGradient>
<rect x="83.5" y="28.5" fill="url(#SVGID_6_)" width="2" height="6.5"/>
<g>
	<linearGradient id="SVGID_7_" gradientUnits="userSpaceOnUse" x1="145.0962" y1="7.417" x2="145.0962" y2="39.751">
		<stop  offset="0" style="stop-color:#FFFFFF"/>
		<stop  offset="0.1334" style="stop-color:#F3F3F3"/>
		<stop  offset="0.3758" style="stop-color:#D2D2D2"/>
		<stop  offset="0.6974" style="stop-color:#9E9E9E"/>
		<stop  offset="0.9005" style="stop-color:#7A7A7A"/>
	</linearGradient>
	<path fill="url(#SVGID_7_)" d="M143.985,15.987c-0.492,0-0.983-0.088-1.475-0.265s-0.937-0.445-1.334-0.805
		c-0.398-0.36-0.722-0.813-0.971-1.361c-0.249-0.547-0.374-1.194-0.374-1.941c0-0.686,0.126-1.333,0.379-1.942
		c0.252-0.609,0.613-1.143,1.08-1.6s1.026-0.818,1.677-1.085s1.378-0.4,2.181-0.4c0.817,0,1.547,0.125,2.191,0.374
		s1.189,0.599,1.636,1.049c0.447,0.45,0.79,0.985,1.028,1.604c0.239,0.62,0.358,1.304,0.358,2.052c0,0.498-0.04,0.966-0.12,1.402
		c-0.08,0.436-0.19,0.854-0.332,1.251c-0.142,0.398-0.313,0.779-0.514,1.143c-0.201,0.363-0.426,0.722-0.675,1.075l-3.261,4.632
		c-0.139,0.201-0.356,0.371-0.654,0.509c-0.298,0.139-0.634,0.208-1.007,0.208h-2.971l4.798-5.733
		c0.097-0.117,0.189-0.229,0.275-0.337s0.171-0.217,0.254-0.327c-0.312,0.166-0.651,0.29-1.018,0.374
		C144.771,15.946,144.387,15.987,143.985,15.987z M147.288,11.376c0-0.367-0.054-0.69-0.161-0.971
		c-0.107-0.281-0.256-0.515-0.447-0.701c-0.19-0.188-0.42-0.329-0.69-0.426c-0.27-0.098-0.564-0.146-0.883-0.146
		c-0.326,0-0.615,0.057-0.867,0.171c-0.253,0.114-0.467,0.272-0.644,0.473c-0.177,0.201-0.312,0.438-0.405,0.712
		c-0.093,0.273-0.14,0.569-0.14,0.888c0,1.51,0.699,2.265,2.098,2.265c0.686,0,1.213-0.206,1.584-0.618
		C147.103,12.61,147.288,12.062,147.288,11.376z"/>
	<linearGradient id="SVGID_8_" gradientUnits="userSpaceOnUse" x1="156.853" y1="7.417" x2="156.853" y2="39.751">
		<stop  offset="0" style="stop-color:#FFFFFF"/>
		<stop  offset="0.1334" style="stop-color:#F3F3F3"/>
		<stop  offset="0.3758" style="stop-color:#D2D2D2"/>
		<stop  offset="0.6974" style="stop-color:#9E9E9E"/>
		<stop  offset="0.9005" style="stop-color:#7A7A7A"/>
	</linearGradient>
	<path fill="url(#SVGID_8_)" d="M157.258,6.588c0.748,0,1.412,0.105,1.994,0.317c0.582,0.211,1.072,0.496,1.474,0.856
		s0.707,0.777,0.914,1.251c0.207,0.475,0.311,0.976,0.311,1.501c0,0.479-0.047,0.898-0.145,1.262
		c-0.098,0.364-0.24,0.679-0.432,0.945c-0.189,0.267-0.426,0.493-0.705,0.681c-0.281,0.187-0.602,0.343-0.961,0.468
		c1.676,0.581,2.514,1.72,2.514,3.417c0,0.803-0.146,1.502-0.438,2.098s-0.68,1.091-1.168,1.485s-1.053,0.69-1.697,0.888
		s-1.316,0.296-2.015,0.296c-0.72,0-1.36-0.078-1.921-0.233c-0.561-0.156-1.059-0.398-1.496-0.728
		c-0.436-0.328-0.819-0.749-1.147-1.262c-0.329-0.512-0.615-1.121-0.857-1.828l1.433-0.581c0.125-0.056,0.248-0.094,0.369-0.114
		s0.241-0.031,0.358-0.031c0.222,0,0.421,0.043,0.597,0.13c0.177,0.087,0.31,0.213,0.4,0.379c0.312,0.575,0.642,0.992,0.992,1.252
		c0.35,0.259,0.76,0.389,1.23,0.389c0.36,0,0.673-0.061,0.94-0.182s0.488-0.276,0.665-0.467c0.176-0.19,0.31-0.407,0.399-0.649
		c0.09-0.242,0.135-0.488,0.135-0.737c0-0.325-0.022-0.618-0.067-0.878c-0.045-0.26-0.171-0.482-0.379-0.67
		c-0.208-0.187-0.521-0.33-0.94-0.431s-1.002-0.15-1.75-0.15v-2.223c0.63,0,1.139-0.049,1.527-0.146s0.687-0.23,0.898-0.4
		c0.211-0.169,0.352-0.375,0.42-0.617c0.069-0.243,0.104-0.51,0.104-0.8c0-0.596-0.144-1.055-0.431-1.377
		c-0.287-0.321-0.725-0.482-1.313-0.482c-0.243,0-0.464,0.034-0.665,0.104s-0.381,0.163-0.54,0.28
		c-0.159,0.118-0.296,0.257-0.41,0.416s-0.206,0.332-0.275,0.52c-0.111,0.312-0.251,0.536-0.42,0.675
		c-0.17,0.139-0.4,0.208-0.691,0.208c-0.069,0-0.144-0.004-0.223-0.011s-0.161-0.018-0.244-0.031l-1.703-0.301
		c0.111-0.755,0.324-1.413,0.639-1.974s0.706-1.028,1.174-1.402c0.467-0.374,1.002-0.652,1.604-0.836S156.565,6.588,157.258,6.588z"
		/>
	<linearGradient id="SVGID_9_" gradientUnits="userSpaceOnUse" x1="165.2129" y1="7.417" x2="165.2129" y2="39.751">
		<stop  offset="0" style="stop-color:#FFFFFF"/>
		<stop  offset="0.1334" style="stop-color:#F3F3F3"/>
		<stop  offset="0.3758" style="stop-color:#D2D2D2"/>
		<stop  offset="0.6974" style="stop-color:#9E9E9E"/>
		<stop  offset="0.9005" style="stop-color:#7A7A7A"/>
	</linearGradient>
	<path fill="url(#SVGID_9_)" d="M163.385,20.256c0-0.249,0.047-0.48,0.141-0.695s0.223-0.401,0.385-0.562
		c0.162-0.159,0.354-0.285,0.576-0.379c0.221-0.094,0.463-0.14,0.727-0.14c0.256,0,0.496,0.046,0.717,0.14
		c0.223,0.094,0.416,0.22,0.582,0.379c0.166,0.16,0.295,0.347,0.389,0.562s0.141,0.446,0.141,0.695s-0.047,0.483-0.141,0.701
		s-0.223,0.407-0.389,0.566s-0.359,0.284-0.582,0.374c-0.221,0.09-0.461,0.135-0.717,0.135c-0.264,0-0.506-0.045-0.727-0.135
		c-0.223-0.09-0.414-0.215-0.576-0.374s-0.291-0.349-0.385-0.566S163.385,20.505,163.385,20.256z"/>
	<linearGradient id="SVGID_10_" gradientUnits="userSpaceOnUse" x1="173.8027" y1="7.417" x2="173.8027" y2="39.751">
		<stop  offset="0" style="stop-color:#FFFFFF"/>
		<stop  offset="0.1334" style="stop-color:#F3F3F3"/>
		<stop  offset="0.3758" style="stop-color:#D2D2D2"/>
		<stop  offset="0.6974" style="stop-color:#9E9E9E"/>
		<stop  offset="0.9005" style="stop-color:#7A7A7A"/>
	</linearGradient>
	<path fill="url(#SVGID_10_)" d="M174.207,6.588c0.748,0,1.414,0.105,1.994,0.317c0.582,0.211,1.074,0.496,1.475,0.856
		c0.402,0.36,0.707,0.777,0.914,1.251c0.209,0.475,0.313,0.976,0.313,1.501c0,0.479-0.049,0.898-0.145,1.262
		c-0.098,0.364-0.242,0.679-0.432,0.945c-0.191,0.267-0.426,0.493-0.707,0.681c-0.279,0.187-0.6,0.343-0.961,0.468
		c1.676,0.581,2.514,1.72,2.514,3.417c0,0.803-0.145,1.502-0.436,2.098s-0.68,1.091-1.168,1.485s-1.055,0.69-1.699,0.888
		c-0.643,0.197-1.314,0.296-2.014,0.296c-0.721,0-1.361-0.078-1.922-0.233c-0.561-0.156-1.061-0.398-1.496-0.728
		c-0.436-0.328-0.818-0.749-1.148-1.262c-0.328-0.512-0.613-1.121-0.855-1.828l1.434-0.581c0.123-0.056,0.246-0.094,0.367-0.114
		s0.242-0.031,0.359-0.031c0.221,0,0.42,0.043,0.598,0.13c0.176,0.087,0.309,0.213,0.398,0.379c0.313,0.575,0.643,0.992,0.992,1.252
		c0.35,0.259,0.76,0.389,1.23,0.389c0.361,0,0.674-0.061,0.941-0.182c0.266-0.121,0.486-0.276,0.664-0.467
		c0.176-0.19,0.311-0.407,0.4-0.649s0.135-0.488,0.135-0.737c0-0.325-0.023-0.618-0.068-0.878s-0.172-0.482-0.379-0.67
		c-0.207-0.187-0.521-0.33-0.939-0.431c-0.42-0.101-1.002-0.15-1.75-0.15v-2.223c0.629,0,1.139-0.049,1.527-0.146
		c0.387-0.097,0.686-0.23,0.896-0.4c0.213-0.169,0.352-0.375,0.422-0.617c0.068-0.243,0.104-0.51,0.104-0.8
		c0-0.596-0.145-1.055-0.432-1.377c-0.287-0.321-0.725-0.482-1.313-0.482c-0.242,0-0.465,0.034-0.666,0.104s-0.381,0.163-0.539,0.28
		c-0.16,0.118-0.297,0.257-0.41,0.416c-0.115,0.159-0.207,0.332-0.275,0.52c-0.111,0.312-0.252,0.536-0.422,0.675
		c-0.168,0.139-0.398,0.208-0.689,0.208c-0.07,0-0.145-0.004-0.223-0.011c-0.08-0.007-0.162-0.018-0.244-0.031l-1.705-0.301
		c0.111-0.755,0.324-1.413,0.641-1.974c0.314-0.561,0.705-1.028,1.172-1.402c0.469-0.374,1.004-0.652,1.605-0.836
		S173.516,6.588,174.207,6.588z"/>
</g>
<linearGradient id="SVGID_11_" gradientUnits="userSpaceOnUse" x1="49.3652" y1="0.0146" x2="49.3652" y2="35">
	<stop  offset="0" style="stop-color:#FFFFFF"/>
	<stop  offset="0.1334" style="stop-color:#F3F3F3"/>
	<stop  offset="0.3758" style="stop-color:#D2D2D2"/>
	<stop  offset="0.6974" style="stop-color:#9E9E9E"/>
	<stop  offset="0.9005" style="stop-color:#7A7A7A"/>
</linearGradient>
<path fill="url(#SVGID_11_)" d="M47.878,35h3.426c5.75-18.013,0.457-30.115-2.5-34.985H44.86C46.217,1.743,54.985,14.08,47.878,35z"
	/>
</svg>
