<?xml version="1.0" encoding="utf-8"?>
<!-- Generator: Adobe Illustrator 16.0.3, SVG Export Plug-In . SVG Version: 6.00 Build 0)  -->
<!DOCTYPE svg PUBLIC "-//W3C//DTD SVG 1.1//EN" "http://www.w3.org/Graphics/SVG/1.1/DTD/svg11.dtd">
<svg version="1.1" id="Capa_1" xmlns="http://www.w3.org/2000/svg" xmlns:xlink="http://www.w3.org/1999/xlink" x="0px" y="0px"
	 width="320px" height="52.666px" viewBox="0 0 320 52.666" enable-background="new 0 0 320 52.666" xml:space="preserve">
<linearGradient id="SVGID_1_" gradientUnits="userSpaceOnUse" x1="0" y1="26.333" x2="320" y2="26.333">
	<stop  offset="0" style="stop-color:#000035"/>
	<stop  offset="0.0898" style="stop-color:#001040"/>
	<stop  offset="0.3719" style="stop-color:#003F5E"/>
	<stop  offset="0.5131" style="stop-color:#00516A"/>
	<stop  offset="0.6076" style="stop-color:#004965"/>
	<stop  offset="0.7569" style="stop-color:#003256"/>
	<stop  offset="0.9411" style="stop-color:#000D3E"/>
	<stop  offset="1" style="stop-color:#000035"/>
</linearGradient>
<rect fill="url(#SVGID_1_)" width="320" height="52.666"/>
<g>
	<path fill="#667A96" d="M235.346,23.985c-0.465-0.304-1.018-0.456-1.658-0.456c-0.908,0.023-1.605,0.388-2.093,1.091
		c-0.498,0.681-0.747,1.472-0.747,2.369c0,0.28,0.033,0.556,0.099,0.824c0.057,0.285,0.153,0.547,0.292,0.78
		c0.143,0.219,0.34,0.394,0.589,0.524c0.249,0.154,0.566,0.232,0.954,0.232c0.604,0,1.221-0.155,1.853-0.464l-0.249,1.852
		c-0.703,0.295-1.436,0.436-2.199,0.425c-1.128-0.012-2.025-0.373-2.695-1.087c-0.668-0.701-1.009-1.637-1.021-2.807
		c0.012-1.614,0.481-2.939,1.411-3.979c0.917-1.026,2.17-1.552,3.757-1.574c0.879,0.011,1.637,0.127,2.271,0.349L235.346,23.985z"/>
	<path fill="#667A96" d="M253.011,23.096c0.095-0.419,0.158-0.812,0.19-1.174h2.156l-0.266,1.198h0.035
		c0.639-0.936,1.521-1.403,2.642-1.403c1.083,0.012,1.893,0.351,2.429,1.019c0.519,0.661,0.778,1.543,0.778,2.644
		c0,1.46-0.372,2.771-1.117,3.928c-0.761,1.198-1.904,1.817-3.428,1.856c-0.507,0-0.982-0.11-1.424-0.332
		c-0.453-0.232-0.781-0.657-0.986-1.277l-0.031-0.009l-1.003,5.084h-2.344L253.011,23.096z M258.6,25.461
		c0-0.572-0.131-1.041-0.391-1.407c-0.271-0.337-0.674-0.512-1.205-0.524c-0.377,0-0.713,0.113-1.006,0.336
		c-0.312,0.234-0.566,0.538-0.766,0.91c-0.433,0.772-0.648,1.588-0.648,2.446c0,0.595,0.114,1.093,0.342,1.494
		c0.237,0.411,0.623,0.622,1.156,0.635c0.475,0,0.877-0.143,1.204-0.43c0.332-0.257,0.591-0.59,0.772-0.996
		c0.2-0.412,0.342-0.842,0.424-1.288C258.56,26.202,258.6,25.811,258.6,25.461z"/>
	<path fill="#667A96" d="M263.213,27.167c0.012,1.558,0.818,2.32,2.421,2.285c0.939,0,1.836-0.217,2.686-0.653l-0.29,1.854
		c-0.906,0.312-1.834,0.481-2.785,0.51c-1.276,0-2.288-0.327-3.033-0.983c-0.769-0.646-1.159-1.631-1.17-2.961
		c0.011-1.46,0.486-2.735,1.426-3.826c0.913-1.095,2.095-1.653,3.549-1.676c1.094,0,1.964,0.279,2.61,0.838
		c0.637,0.571,0.96,1.436,0.971,2.593c0,0.679-0.074,1.351-0.224,2.02H263.213z M267.367,25.56c0.038-0.212,0.058-0.416,0.058-0.61
		c0-0.997-0.484-1.505-1.451-1.522c-0.706,0.018-1.248,0.212-1.625,0.584c-0.389,0.391-0.69,0.907-0.908,1.549H267.367z"/>
	<path fill="#667A96" d="M270.902,23.137c0.075-0.388,0.146-0.793,0.215-1.215h2.241l-0.317,1.713h0.035
		c0.233-0.514,0.597-0.958,1.087-1.335c0.49-0.371,1.018-0.562,1.582-0.574c0.303,0,0.601,0.029,0.89,0.085l-0.487,2.284
		c-0.279-0.091-0.578-0.137-0.898-0.137c-0.815,0.022-1.439,0.325-1.874,0.906c-0.445,0.588-0.741,1.267-0.89,2.037l-0.848,4.048
		h-2.345L270.902,23.137z"/>
	<path fill="#667A96" d="M280.35,29.563h-0.033c-0.386,0.502-0.796,0.888-1.228,1.154c-0.441,0.286-0.972,0.435-1.591,0.445
		c-0.795,0-1.441-0.222-1.938-0.665c-0.497-0.445-0.751-1.08-0.762-1.906c0-0.751,0.183-1.341,0.547-1.768
		c0.166-0.233,0.368-0.427,0.604-0.581c0.227-0.147,0.47-0.275,0.729-0.385c0.559-0.209,1.146-0.345,1.764-0.4
		c0.614-0.046,1.185-0.068,1.715-0.068h0.796c0.05-0.248,0.074-0.504,0.074-0.774c-0.011-0.446-0.199-0.766-0.563-0.955
		c-0.364-0.155-0.759-0.232-1.185-0.232c-1.01,0.018-1.965,0.253-2.865,0.706l0.315-1.868c0.968-0.366,1.959-0.548,2.977-0.548
		c0.918-0.011,1.702,0.179,2.354,0.574c0.669,0.422,1.014,1.156,1.037,2.206c-0.013,0.69-0.158,1.704-0.44,3.039
		c-0.283,1.328-0.492,2.466-0.631,3.413h-1.918L280.35,29.563z M276.971,28.503c0,0.319,0.125,0.553,0.374,0.701
		c0.214,0.166,0.474,0.248,0.777,0.248c0.829-0.011,1.428-0.279,1.798-0.804c0.203-0.246,0.37-0.528,0.496-0.847
		c0.067-0.16,0.122-0.328,0.166-0.506c0.05-0.164,0.091-0.333,0.125-0.504h-0.804c-0.271,0-0.569,0.012-0.895,0.034
		c-0.331,0.034-0.654,0.108-0.969,0.222c-0.304,0.12-0.553,0.292-0.746,0.514C277.079,27.808,276.971,28.12,276.971,28.503z"/>
	<path fill="#667A96" d="M284.133,21.922h1.641l0.39-1.857l2.446-0.821l-0.556,2.679h2.03l-0.357,1.711h-2.033l-0.838,3.958
		c-0.067,0.223-0.101,0.515-0.101,0.876c0,0.257,0.087,0.469,0.258,0.635c0.155,0.165,0.357,0.249,0.606,0.249
		c0.431,0,0.803-0.071,1.113-0.216l-0.398,1.816c-0.188,0.033-0.386,0.072-0.591,0.118c-0.215,0.063-0.425,0.094-0.63,0.094
		c-0.78,0-1.409-0.182-1.886-0.548c-0.498-0.359-0.747-0.969-0.747-1.825c0.011-0.691,0.104-1.395,0.282-2.107l0.646-3.05h-1.634
		L284.133,21.922z"/>
	<path fill="#667A96" d="M290.597,21.922h2.275l-1.87,9.027h-2.266L290.597,21.922z M291.439,18.037h2.258l-0.469,2.241h-2.268
		L291.439,18.037z"/>
	<path fill="#667A96" d="M292.917,21.922h2.404l0.908,6.633h0.033l3.468-6.633h2.407l-5.105,9.027h-2.592L292.917,21.922z"/>
	<path fill="#667A96" d="M306.274,29.563h-0.033c-0.388,0.502-0.796,0.888-1.228,1.154c-0.441,0.286-0.973,0.435-1.593,0.445
		c-0.794,0-1.439-0.222-1.936-0.665c-0.497-0.445-0.751-1.08-0.763-1.906c0-0.751,0.183-1.341,0.547-1.768
		c0.165-0.233,0.367-0.427,0.605-0.581c0.227-0.147,0.47-0.275,0.729-0.385c0.557-0.209,1.145-0.345,1.765-0.4
		c0.611-0.046,1.184-0.068,1.714-0.068h0.794c0.051-0.248,0.076-0.504,0.076-0.774c-0.012-0.446-0.199-0.766-0.563-0.955
		c-0.364-0.155-0.759-0.232-1.185-0.232c-1.011,0.018-1.966,0.253-2.865,0.706l0.314-1.868c0.967-0.366,1.96-0.548,2.977-0.548
		c0.917-0.011,1.702,0.179,2.355,0.574c0.668,0.422,1.014,1.156,1.035,2.206c-0.011,0.69-0.158,1.704-0.44,3.039
		c-0.282,1.328-0.492,2.466-0.63,3.413h-1.918L306.274,29.563z M302.896,28.503c0,0.319,0.123,0.553,0.372,0.701
		c0.216,0.166,0.476,0.248,0.779,0.248c0.827-0.011,1.428-0.279,1.796-0.804c0.205-0.246,0.371-0.528,0.498-0.847
		c0.065-0.16,0.122-0.328,0.166-0.506c0.049-0.164,0.091-0.333,0.124-0.504h-0.805c-0.27,0-0.567,0.012-0.895,0.034
		c-0.331,0.034-0.654,0.108-0.969,0.222c-0.304,0.12-0.553,0.292-0.745,0.514C303.002,27.808,302.896,28.12,302.896,28.503z"/>
	<path fill="#667A96" d="M249.344,21.987c1.677,0.6,2.722,2.173,2.421,4.567c-0.252,2.001-1.428,3.437-2.968,4.158
		c-0.748,0.352-1.822,0.614-3.026,0.488c-0.873-0.093-1.649-0.42-2.205-0.918c-0.05-0.045-0.216-0.209-0.216-0.215
		c-0.001-0.052,0.234-0.25,0.313-0.332c0.489-0.5,0.844-1.069,1.152-1.737c0.147,0.969,0.995,1.475,1.991,1.387
		c0.767-0.067,1.281-0.522,1.639-0.977c0.649-0.825,1.289-2.757,0.625-4.041c-0.14-0.268-0.432-0.572-0.761-0.702
		c-0.31-0.121-0.805-0.127-0.937-0.118c-1.464,0.099-2.289,1.434-2.558,2.813c-0.061,0.307-0.042,0.623-0.099,0.975
		c-0.094,0.596-0.377,1.036-0.684,1.464c-0.562,0.788-1.355,1.488-2.361,1.934c-0.934,0.413-2.304,0.673-3.65,0.332
		c-1.095-0.277-1.954-0.945-2.4-1.894c-0.456-0.97-0.573-2.452-0.215-3.65c0.353-1.179,1.037-2.047,1.698-2.597
		c0.758-0.629,1.79-1.139,3.144-1.21c1.743-0.093,2.9,0.496,3.668,1.426C245.002,22.057,247.283,21.249,249.344,21.987z
		 M242.121,26.828c0.199-0.817,0.25-1.857-0.156-2.537c-0.32-0.538-0.955-0.798-1.717-0.724c-0.834,0.082-1.414,0.546-1.797,1.074
		c-0.585,0.81-1.221,2.914-0.41,4.08c0.443,0.638,1.598,0.856,2.421,0.468C241.313,28.79,241.868,27.863,242.121,26.828z"/>
</g>
<linearGradient id="SVGID_2_" gradientUnits="userSpaceOnUse" x1="158.9995" y1="41.916" x2="158.9995" y2="52.916">
	<stop  offset="0" style="stop-color:#FFFFFF"/>
	<stop  offset="0.2119" style="stop-color:#FCFCFC"/>
	<stop  offset="0.3844" style="stop-color:#F2F2F2"/>
	<stop  offset="0.5432" style="stop-color:#E1E1E1"/>
	<stop  offset="0.6937" style="stop-color:#C9C9C9"/>
	<stop  offset="0.8383" style="stop-color:#AAAAAA"/>
	<stop  offset="0.9767" style="stop-color:#848484"/>
	<stop  offset="1" style="stop-color:#7D7D7D"/>
</linearGradient>
<rect x="158" y="42.666" fill="url(#SVGID_2_)" width="2" height="10"/>
<linearGradient id="SVGID_3_" gradientUnits="userSpaceOnUse" x1="197.75" y1="44.0664" x2="197.75" y2="52.8664">
	<stop  offset="0" style="stop-color:#B3C7D9"/>
	<stop  offset="0.2485" style="stop-color:#B0C4D6"/>
	<stop  offset="0.4508" style="stop-color:#A7BACD"/>
	<stop  offset="0.6369" style="stop-color:#98A9BD"/>
	<stop  offset="0.8133" style="stop-color:#8391A7"/>
	<stop  offset="0.9814" style="stop-color:#67728B"/>
	<stop  offset="1" style="stop-color:#646E87"/>
</linearGradient>
<rect x="196.75" y="44.666" fill="url(#SVGID_3_)" width="2" height="8"/>
<linearGradient id="SVGID_4_" gradientUnits="userSpaceOnUse" x1="119.75" y1="44.0664" x2="119.75" y2="52.8664">
	<stop  offset="0" style="stop-color:#B3C7D9"/>
	<stop  offset="0.2485" style="stop-color:#B0C4D6"/>
	<stop  offset="0.4508" style="stop-color:#A7BACD"/>
	<stop  offset="0.6369" style="stop-color:#98A9BD"/>
	<stop  offset="0.8133" style="stop-color:#8391A7"/>
	<stop  offset="0.9814" style="stop-color:#67728B"/>
	<stop  offset="1" style="stop-color:#646E87"/>
</linearGradient>
<rect x="118.75" y="44.666" fill="url(#SVGID_4_)" width="2" height="8"/>
<linearGradient id="SVGID_5_" gradientUnits="userSpaceOnUse" x1="233.1895" y1="45.6787" x2="233.1895" y2="52.8287">
	<stop  offset="0" style="stop-color:#5F78A3"/>
	<stop  offset="0.2201" style="stop-color:#5A6E97"/>
	<stop  offset="0.6183" style="stop-color:#4C5577"/>
	<stop  offset="0.9005" style="stop-color:#40405C"/>
</linearGradient>
<rect x="232.189" y="46.166" fill="url(#SVGID_5_)" width="2" height="6.5"/>
<g opacity="0.2">
	<path d="M140.932,28.441c-0.622,0-1.244-0.111-1.866-0.335c-0.622-0.224-1.185-0.563-1.688-1.018
		c-0.504-0.456-0.913-1.029-1.229-1.722c-0.315-0.691-0.473-1.511-0.473-2.456c0-0.867,0.16-1.686,0.48-2.456
		c0.319-0.771,0.775-1.445,1.366-2.023c0.591-0.578,1.298-1.035,2.122-1.372c0.823-0.338,1.743-0.507,2.759-0.507
		c1.033,0,1.957,0.158,2.772,0.473c0.814,0.315,1.504,0.758,2.069,1.327c0.565,0.569,0.999,1.246,1.301,2.029
		c0.302,0.784,0.453,1.649,0.453,2.595c0,0.631-0.051,1.222-0.151,1.774c-0.101,0.551-0.241,1.079-0.42,1.582
		c-0.18,0.504-0.396,0.985-0.65,1.445c-0.254,0.459-0.539,0.913-0.854,1.359l-4.125,5.859c-0.175,0.254-0.451,0.469-0.828,0.644
		c-0.376,0.175-0.802,0.263-1.274,0.263h-3.757l6.069-7.252c0.123-0.148,0.239-0.29,0.349-0.426
		c0.109-0.136,0.216-0.274,0.322-0.414c-0.394,0.21-0.823,0.367-1.287,0.473C141.926,28.39,141.44,28.441,140.932,28.441z
		 M145.11,22.609c0-0.465-0.068-0.874-0.204-1.229c-0.136-0.355-0.324-0.65-0.565-0.887c-0.241-0.237-0.532-0.416-0.873-0.538
		c-0.342-0.124-0.714-0.185-1.117-0.185c-0.412,0-0.778,0.072-1.097,0.217c-0.32,0.145-0.591,0.344-0.814,0.598
		s-0.394,0.555-0.513,0.9c-0.118,0.346-0.177,0.72-0.177,1.123c0,1.909,0.884,2.864,2.654,2.864c0.867,0,1.535-0.261,2.003-0.782
		C144.875,24.17,145.11,23.476,145.11,22.609z"/>
	<path d="M157.72,16.553c0.946,0,1.786,0.134,2.523,0.401c0.735,0.267,1.355,0.628,1.864,1.083c0.509,0.456,0.895,0.983,1.156,1.583
		s0.393,1.233,0.393,1.898c0,0.604-0.06,1.136-0.183,1.596c-0.124,0.461-0.304,0.858-0.546,1.195
		c-0.24,0.337-0.539,0.624-0.893,0.861c-0.355,0.235-0.761,0.434-1.215,0.592c2.119,0.734,3.18,2.175,3.18,4.321
		c0,1.016-0.186,1.9-0.554,2.653c-0.368,0.754-0.859,1.38-1.478,1.879c-0.617,0.499-1.333,0.873-2.146,1.123
		c-0.815,0.249-1.665,0.374-2.549,0.374c-0.911,0-1.721-0.099-2.43-0.295c-0.709-0.198-1.34-0.504-1.892-0.921
		c-0.551-0.415-1.036-0.947-1.451-1.596c-0.416-0.647-0.777-1.418-1.084-2.313l1.813-0.734c0.158-0.07,0.313-0.119,0.466-0.145
		c0.153-0.026,0.305-0.04,0.454-0.04c0.28,0,0.532,0.055,0.755,0.165c0.224,0.109,0.392,0.269,0.506,0.479
		c0.394,0.728,0.812,1.255,1.255,1.584c0.442,0.327,0.961,0.491,1.556,0.491c0.455,0,0.852-0.076,1.189-0.229
		s0.618-0.35,0.841-0.591c0.223-0.24,0.392-0.515,0.505-0.821c0.114-0.306,0.171-0.617,0.171-0.933c0-0.411-0.029-0.781-0.085-1.11
		c-0.058-0.328-0.217-0.61-0.48-0.847c-0.262-0.236-0.659-0.418-1.188-0.545c-0.53-0.127-1.268-0.19-2.214-0.19v-2.812
		c0.797,0,1.441-0.062,1.931-0.184c0.491-0.122,0.869-0.292,1.137-0.507c0.267-0.214,0.444-0.474,0.532-0.78
		c0.087-0.308,0.131-0.645,0.131-1.012c0-0.754-0.182-1.334-0.545-1.741c-0.363-0.407-0.917-0.61-1.661-0.61
		c-0.307,0-0.587,0.043-0.841,0.131s-0.481,0.206-0.683,0.354c-0.201,0.149-0.374,0.324-0.519,0.526
		c-0.145,0.201-0.261,0.42-0.348,0.656c-0.141,0.395-0.318,0.679-0.532,0.854c-0.215,0.176-0.505,0.264-0.874,0.264
		c-0.087,0-0.182-0.005-0.282-0.014s-0.204-0.022-0.309-0.039l-2.154-0.381c0.14-0.955,0.409-1.787,0.808-2.496
		s0.893-1.301,1.485-1.774c0.591-0.473,1.267-0.825,2.029-1.057C156.026,16.669,156.844,16.553,157.72,16.553z"/>
	<path d="M165.47,33.841c0-0.315,0.059-0.608,0.178-0.88c0.118-0.271,0.281-0.508,0.486-0.71c0.205-0.201,0.447-0.36,0.729-0.479
		c0.279-0.118,0.586-0.177,0.919-0.177c0.324,0,0.628,0.059,0.907,0.177c0.281,0.119,0.526,0.278,0.736,0.479
		c0.21,0.202,0.373,0.438,0.491,0.71c0.119,0.271,0.178,0.564,0.178,0.88c0,0.314-0.059,0.611-0.178,0.887
		c-0.118,0.275-0.281,0.515-0.491,0.716c-0.21,0.202-0.455,0.359-0.736,0.474c-0.279,0.113-0.583,0.17-0.907,0.17
		c-0.333,0-0.64-0.057-0.919-0.17c-0.281-0.114-0.523-0.271-0.729-0.474c-0.205-0.201-0.368-0.44-0.486-0.716
		C165.528,34.452,165.47,34.155,165.47,33.841z"/>
	<path d="M179.158,16.553c0.945,0,1.788,0.134,2.521,0.401c0.736,0.267,1.359,0.628,1.865,1.083
		c0.509,0.456,0.895,0.983,1.156,1.583c0.265,0.6,0.396,1.233,0.396,1.898c0,0.604-0.062,1.136-0.183,1.596
		c-0.124,0.461-0.307,0.858-0.546,1.195c-0.242,0.337-0.539,0.624-0.895,0.861c-0.354,0.235-0.759,0.434-1.216,0.592
		c2.12,0.734,3.18,2.175,3.18,4.321c0,1.016-0.183,1.9-0.551,2.653c-0.368,0.754-0.859,1.38-1.478,1.879
		c-0.617,0.499-1.334,0.873-2.149,1.123c-0.813,0.249-1.662,0.374-2.547,0.374c-0.911,0-1.722-0.099-2.431-0.295
		c-0.709-0.198-1.342-0.504-1.893-0.921c-0.551-0.415-1.035-0.947-1.452-1.596c-0.415-0.647-0.775-1.418-1.082-2.313l1.813-0.734
		c0.155-0.07,0.311-0.119,0.464-0.145c0.153-0.026,0.307-0.04,0.455-0.04c0.279,0,0.531,0.055,0.756,0.165
		c0.222,0.109,0.39,0.269,0.504,0.479c0.396,0.728,0.813,1.255,1.255,1.584c0.442,0.327,0.961,0.491,1.557,0.491
		c0.457,0,0.852-0.076,1.19-0.229c0.336-0.153,0.615-0.35,0.84-0.591c0.223-0.24,0.393-0.515,0.507-0.821
		c0.113-0.306,0.17-0.617,0.17-0.933c0-0.411-0.029-0.781-0.086-1.11c-0.058-0.328-0.218-0.61-0.479-0.847s-0.66-0.418-1.188-0.545
		c-0.531-0.127-1.268-0.19-2.214-0.19v-2.812c0.796,0,1.44-0.062,1.933-0.184c0.489-0.122,0.867-0.292,1.134-0.507
		c0.27-0.214,0.444-0.474,0.533-0.78c0.087-0.308,0.131-0.645,0.131-1.012c0-0.754-0.183-1.334-0.546-1.741s-0.916-0.61-1.66-0.61
		c-0.306,0-0.588,0.043-0.842,0.131c-0.255,0.088-0.482,0.206-0.683,0.354c-0.202,0.149-0.375,0.324-0.519,0.526
		c-0.146,0.201-0.262,0.42-0.348,0.656c-0.142,0.395-0.319,0.679-0.534,0.854c-0.212,0.176-0.504,0.264-0.872,0.264
		c-0.089,0-0.183-0.005-0.281-0.014c-0.102-0.009-0.205-0.022-0.309-0.039l-2.157-0.381c0.141-0.955,0.41-1.787,0.811-2.496
		c0.397-0.709,0.892-1.301,1.482-1.774c0.593-0.473,1.27-0.825,2.03-1.057C177.463,16.669,178.283,16.553,179.158,16.553z"/>
</g>
<linearGradient id="SVGID_6_" gradientUnits="userSpaceOnUse" x1="84.5" y1="45.6787" x2="84.5" y2="52.8287">
	<stop  offset="0" style="stop-color:#5F78A3"/>
	<stop  offset="0.2201" style="stop-color:#5A6E97"/>
	<stop  offset="0.6183" style="stop-color:#4C5577"/>
	<stop  offset="0.9005" style="stop-color:#40405C"/>
</linearGradient>
<rect x="83.5" y="46.166" fill="url(#SVGID_6_)" width="2" height="6.5"/>
<g>
	<linearGradient id="SVGID_7_" gradientUnits="userSpaceOnUse" x1="141.1577" y1="17.6016" x2="141.1577" y2="58.4988">
		<stop  offset="0" style="stop-color:#FFFFFF"/>
		<stop  offset="0.1334" style="stop-color:#F3F3F3"/>
		<stop  offset="0.3758" style="stop-color:#D2D2D2"/>
		<stop  offset="0.6974" style="stop-color:#9E9E9E"/>
		<stop  offset="0.9005" style="stop-color:#7A7A7A"/>
	</linearGradient>
	<path fill="url(#SVGID_7_)" d="M139.753,28.441c-0.622,0-1.244-0.111-1.866-0.335c-0.622-0.224-1.185-0.563-1.688-1.018
		c-0.504-0.456-0.913-1.029-1.229-1.722c-0.315-0.691-0.473-1.511-0.473-2.456c0-0.867,0.16-1.686,0.48-2.456
		c0.319-0.771,0.775-1.445,1.366-2.023c0.591-0.578,1.298-1.035,2.121-1.372c0.823-0.338,1.743-0.507,2.759-0.507
		c1.033,0,1.958,0.158,2.772,0.473c0.814,0.315,1.504,0.758,2.069,1.327c0.565,0.569,0.999,1.246,1.301,2.029
		c0.302,0.784,0.453,1.649,0.453,2.595c0,0.631-0.05,1.222-0.151,1.774c-0.101,0.551-0.241,1.079-0.42,1.582
		c-0.18,0.504-0.396,0.985-0.65,1.445c-0.254,0.459-0.538,0.913-0.854,1.359l-4.125,5.859c-0.175,0.254-0.451,0.469-0.828,0.644
		c-0.376,0.175-0.801,0.263-1.274,0.263h-3.757l6.069-7.252c0.123-0.148,0.239-0.29,0.349-0.426s0.217-0.274,0.322-0.414
		c-0.394,0.21-0.823,0.367-1.287,0.473C140.747,28.39,140.26,28.441,139.753,28.441z M143.93,22.609
		c0-0.465-0.068-0.874-0.204-1.229c-0.136-0.355-0.325-0.65-0.565-0.887c-0.241-0.237-0.532-0.416-0.873-0.538
		c-0.342-0.124-0.714-0.185-1.117-0.185c-0.412,0-0.778,0.072-1.097,0.217c-0.32,0.145-0.591,0.344-0.814,0.598
		s-0.394,0.555-0.513,0.9c-0.118,0.346-0.177,0.72-0.177,1.123c0,1.909,0.885,2.864,2.654,2.864c0.867,0,1.535-0.261,2.004-0.782
		C143.695,24.17,143.93,23.476,143.93,22.609z"/>
	<linearGradient id="SVGID_8_" gradientUnits="userSpaceOnUse" x1="156.0278" y1="17.6016" x2="156.0278" y2="58.499">
		<stop  offset="0" style="stop-color:#FFFFFF"/>
		<stop  offset="0.1334" style="stop-color:#F3F3F3"/>
		<stop  offset="0.3758" style="stop-color:#D2D2D2"/>
		<stop  offset="0.6974" style="stop-color:#9E9E9E"/>
		<stop  offset="0.9005" style="stop-color:#7A7A7A"/>
	</linearGradient>
	<path fill="url(#SVGID_8_)" d="M156.541,16.553c0.945,0,1.786,0.134,2.522,0.401c0.736,0.267,1.356,0.628,1.865,1.083
		c0.509,0.456,0.895,0.983,1.156,1.583s0.393,1.233,0.393,1.898c0,0.604-0.06,1.136-0.183,1.596
		c-0.124,0.461-0.304,0.858-0.546,1.195c-0.24,0.337-0.539,0.624-0.893,0.861c-0.355,0.235-0.761,0.434-1.215,0.592
		c2.119,0.734,3.18,2.175,3.18,4.321c0,1.016-0.186,1.9-0.554,2.653c-0.368,0.754-0.859,1.38-1.478,1.879
		c-0.617,0.499-1.332,0.873-2.146,1.123c-0.814,0.249-1.665,0.374-2.549,0.374c-0.911,0-1.721-0.099-2.43-0.295
		c-0.709-0.198-1.34-0.504-1.892-0.921c-0.551-0.415-1.036-0.947-1.451-1.596c-0.416-0.647-0.777-1.418-1.084-2.313l1.813-0.734
		c0.158-0.07,0.313-0.119,0.466-0.145c0.153-0.026,0.304-0.04,0.453-0.04c0.28,0,0.532,0.055,0.755,0.165
		c0.224,0.109,0.392,0.269,0.506,0.479c0.394,0.728,0.812,1.255,1.255,1.584c0.442,0.327,0.961,0.491,1.556,0.491
		c0.455,0,0.852-0.076,1.189-0.229s0.618-0.35,0.841-0.591c0.223-0.24,0.392-0.515,0.505-0.821c0.114-0.306,0.171-0.617,0.171-0.933
		c0-0.411-0.028-0.781-0.085-1.11c-0.057-0.328-0.217-0.61-0.479-0.847s-0.659-0.418-1.189-0.545c-0.53-0.127-1.268-0.19-2.213-0.19
		v-2.812c0.796,0,1.44-0.062,1.931-0.184c0.49-0.122,0.869-0.292,1.136-0.507c0.267-0.214,0.445-0.474,0.532-0.78
		c0.088-0.308,0.131-0.645,0.131-1.012c0-0.754-0.181-1.334-0.545-1.741c-0.363-0.407-0.917-0.61-1.662-0.61
		c-0.307,0-0.587,0.043-0.841,0.131c-0.253,0.088-0.481,0.206-0.683,0.354c-0.202,0.149-0.375,0.324-0.519,0.526
		c-0.145,0.201-0.261,0.42-0.348,0.656c-0.14,0.395-0.317,0.679-0.532,0.854c-0.215,0.176-0.506,0.264-0.874,0.264
		c-0.087,0-0.182-0.005-0.282-0.014s-0.204-0.022-0.309-0.039l-2.154-0.381c0.14-0.955,0.409-1.787,0.808-2.496
		s0.893-1.301,1.485-1.774c0.591-0.473,1.267-0.825,2.029-1.057C154.846,16.669,155.665,16.553,156.541,16.553z"/>
	<linearGradient id="SVGID_9_" gradientUnits="userSpaceOnUse" x1="166.6016" y1="17.6016" x2="166.6016" y2="58.4969">
		<stop  offset="0" style="stop-color:#FFFFFF"/>
		<stop  offset="0.1334" style="stop-color:#F3F3F3"/>
		<stop  offset="0.3758" style="stop-color:#D2D2D2"/>
		<stop  offset="0.6974" style="stop-color:#9E9E9E"/>
		<stop  offset="0.9005" style="stop-color:#7A7A7A"/>
	</linearGradient>
	<path fill="url(#SVGID_9_)" d="M164.29,33.841c0-0.315,0.059-0.608,0.178-0.88c0.118-0.271,0.281-0.508,0.486-0.71
		c0.205-0.201,0.447-0.36,0.729-0.479c0.279-0.118,0.586-0.177,0.919-0.177c0.324,0,0.628,0.059,0.907,0.177
		c0.281,0.119,0.526,0.278,0.736,0.479c0.21,0.202,0.373,0.438,0.491,0.71c0.119,0.271,0.178,0.564,0.178,0.88
		c0,0.314-0.059,0.611-0.178,0.887c-0.118,0.275-0.281,0.515-0.491,0.716c-0.21,0.202-0.455,0.359-0.736,0.474
		c-0.279,0.113-0.583,0.17-0.907,0.17c-0.333,0-0.64-0.057-0.919-0.17c-0.281-0.114-0.523-0.271-0.729-0.474
		c-0.205-0.201-0.368-0.44-0.486-0.716C164.349,34.452,164.29,34.155,164.29,33.841z"/>
	<linearGradient id="SVGID_10_" gradientUnits="userSpaceOnUse" x1="177.4668" y1="17.6016" x2="177.4668" y2="58.499">
		<stop  offset="0" style="stop-color:#FFFFFF"/>
		<stop  offset="0.1334" style="stop-color:#F3F3F3"/>
		<stop  offset="0.3758" style="stop-color:#D2D2D2"/>
		<stop  offset="0.6974" style="stop-color:#9E9E9E"/>
		<stop  offset="0.9005" style="stop-color:#7A7A7A"/>
	</linearGradient>
	<path fill="url(#SVGID_10_)" d="M177.979,16.553c0.945,0,1.788,0.134,2.521,0.401c0.736,0.267,1.359,0.628,1.865,1.083
		c0.51,0.456,0.895,0.983,1.156,1.583c0.265,0.6,0.396,1.233,0.396,1.898c0,0.604-0.062,1.136-0.183,1.596
		c-0.124,0.461-0.307,0.858-0.546,1.195c-0.242,0.337-0.539,0.624-0.895,0.861c-0.354,0.235-0.759,0.434-1.216,0.592
		c2.12,0.734,3.18,2.175,3.18,4.321c0,1.016-0.183,1.9-0.551,2.653c-0.368,0.754-0.859,1.38-1.478,1.879
		c-0.617,0.499-1.334,0.873-2.149,1.123c-0.813,0.249-1.662,0.374-2.547,0.374c-0.911,0-1.722-0.099-2.431-0.295
		c-0.709-0.198-1.341-0.504-1.893-0.921c-0.551-0.415-1.035-0.947-1.452-1.596c-0.415-0.647-0.775-1.418-1.082-2.313l1.813-0.734
		c0.155-0.07,0.311-0.119,0.464-0.145c0.153-0.026,0.307-0.04,0.455-0.04c0.279,0,0.531,0.055,0.756,0.165
		c0.223,0.109,0.391,0.269,0.504,0.479c0.396,0.728,0.813,1.255,1.255,1.584c0.442,0.327,0.961,0.491,1.557,0.491
		c0.457,0,0.852-0.076,1.19-0.229c0.336-0.153,0.615-0.35,0.84-0.591c0.223-0.24,0.393-0.515,0.507-0.821
		c0.113-0.306,0.17-0.617,0.17-0.933c0-0.411-0.029-0.781-0.086-1.11c-0.058-0.328-0.218-0.61-0.479-0.847s-0.66-0.418-1.188-0.545
		c-0.531-0.127-1.268-0.19-2.213-0.19v-2.812c0.795,0,1.439-0.062,1.932-0.184c0.489-0.122,0.867-0.292,1.134-0.507
		c0.27-0.214,0.444-0.474,0.533-0.78c0.087-0.308,0.131-0.645,0.131-1.012c0-0.754-0.183-1.334-0.546-1.741s-0.916-0.61-1.66-0.61
		c-0.306,0-0.588,0.043-0.842,0.131c-0.255,0.088-0.482,0.206-0.682,0.354c-0.203,0.149-0.376,0.324-0.52,0.526
		c-0.146,0.201-0.262,0.42-0.348,0.656c-0.142,0.395-0.319,0.679-0.534,0.854c-0.212,0.176-0.504,0.264-0.872,0.264
		c-0.089,0-0.183-0.005-0.281-0.014c-0.102-0.009-0.205-0.022-0.309-0.039l-2.157-0.381c0.141-0.955,0.41-1.787,0.811-2.496
		c0.397-0.709,0.892-1.301,1.482-1.774c0.593-0.473,1.27-0.825,2.03-1.057C176.283,16.669,177.104,16.553,177.979,16.553z"/>
</g>
<linearGradient id="SVGID_11_" gradientUnits="userSpaceOnUse" x1="50.6714" y1="0.0146" x2="50.6714" y2="52.666">
	<stop  offset="0" style="stop-color:#FFFFFF"/>
	<stop  offset="0.1334" style="stop-color:#F3F3F3"/>
	<stop  offset="0.3758" style="stop-color:#D2D2D2"/>
	<stop  offset="0.6974" style="stop-color:#9E9E9E"/>
	<stop  offset="0.9005" style="stop-color:#7A7A7A"/>
</linearGradient>
<path fill="url(#SVGID_11_)" d="M48.359,52.666h5.327c8.941-27.108,0.711-45.321-3.888-52.651h-6.131
	C45.776,2.615,59.411,21.183,48.359,52.666z"/>
</svg>
